<svg id="wave" style="transform:rotate(0deg); transition: 0.3s" viewBox="0 0 1440 270" version="1.1" xmlns="http://www.w3.org/2000/svg"><defs><linearGradient id="sw-gradient-0" x1="0" x2="0" y1="1" y2="0"><stop stop-color="rgba(0, 0, 0, 1)" offset="0%"></stop><stop stop-color="rgba(0, 0, 0, 1)" offset="100%"></stop></linearGradient></defs><path style="transform:translate(0, 0px); opacity:1" fill="url(#sw-gradient-0)" d="M0,216L17.1,193.5C34.3,171,69,126,103,90C137.1,54,171,27,206,27C240,27,274,54,309,94.5C342.9,135,377,189,411,180C445.7,171,480,99,514,81C548.6,63,583,99,617,103.5C651.4,108,686,81,720,85.5C754.3,90,789,126,823,126C857.1,126,891,90,926,81C960,72,994,90,1029,108C1062.9,126,1097,144,1131,166.5C1165.7,189,1200,216,1234,220.5C1268.6,225,1303,207,1337,166.5C1371.4,126,1406,63,1440,49.5C1474.3,36,1509,72,1543,99C1577.1,126,1611,144,1646,135C1680,126,1714,90,1749,63C1782.9,36,1817,18,1851,27C1885.7,36,1920,72,1954,85.5C1988.6,99,2023,90,2057,103.5C2091.4,117,2126,153,2160,166.5C2194.3,180,2229,171,2263,153C2297.1,135,2331,108,2366,121.5C2400,135,2434,189,2451,216L2468.6,243L2468.6,270L2451.4,270C2434.3,270,2400,270,2366,270C2331.4,270,2297,270,2263,270C2228.6,270,2194,270,2160,270C2125.7,270,2091,270,2057,270C2022.9,270,1989,270,1954,270C1920,270,1886,270,1851,270C1817.1,270,1783,270,1749,270C1714.3,270,1680,270,1646,270C1611.4,270,1577,270,1543,270C1508.6,270,1474,270,1440,270C1405.7,270,1371,270,1337,270C1302.9,270,1269,270,1234,270C1200,270,1166,270,1131,270C1097.1,270,1063,270,1029,270C994.3,270,960,270,926,270C891.4,270,857,270,823,270C788.6,270,754,270,720,270C685.7,270,651,270,617,270C582.9,270,549,270,514,270C480,270,446,270,411,270C377.1,270,343,270,309,270C274.3,270,240,270,206,270C171.4,270,137,270,103,270C68.6,270,34,270,17,270L0,270Z"></path></svg>